<svg xmlns="http://www.w3.org/2000/svg" viewBox="0 0 1100 1100">
  <!-- 外圈装饰 -->
  <circle cx="550" cy="550" r="520" fill="none" stroke="#00D4FF" stroke-width="36"/>
  <circle cx="550" cy="550" r="500" fill="none" stroke="#FFFFFF" stroke-width="28"/>
  
  <!-- 盐罐图标 - 缩小并居中 -->
  <g transform="translate(550, 550) scale(0.75) translate(-512, -512)">
    <path d="M716.016 357.454H309.07l-99.804 569.68c-8.86 50.552 30.04 96.866 81.366 96.866h443.82c51.32 0 90.228-46.312 81.368-96.868z m0 0" fill="#9CDAE3"/>
    <path d="M726.406 416.766l-10.39-59.312H309.07l-99.804 569.68c-8.86 50.552 30.04 96.866 81.366 96.866h162.266c-178.194-138.632-117.672-463.78-93.132-607.234z m0 0" fill="#75B1D9"/>
    <path d="M580.368 357.454h-135.65L405.79 1024h213.5z m0 0" fill="#739CDA"/>
    <path d="M583.828 416.766l-3.46-59.312h-135.65l-3.468 59.312zM408.376 979.774L405.788 1024h47.108c-16.92-13.164-31.672-28.016-44.522-44.226z m0 0" fill="#6082C4"/>
    <path d="M747.29 226.57H277.796c-36.148 0-65.444 29.298-65.444 65.438s29.296 65.446 65.444 65.446H747.29c36.14 0 65.444-29.306 65.444-65.446S783.43 226.57 747.29 226.57z m0 0" fill="#BEBFC0"/>
    <path d="M440.008 226.57H277.796c-36.148 0-65.444 29.298-65.444 65.438s29.296 65.446 65.444 65.446h206.26c-68.11-24.626-79.04-105.33-44.048-130.884z m0 0" fill="#A9AAAB"/>
    <path d="M679.594 0h-334.1a135.414 135.414 0 0 0-97.47 41.406c-38.696 40.11-38.696 103.648 0 143.758l39.936 41.406h449.166l39.936-41.406c38.696-40.11 38.696-103.648 0-143.758A135.414 135.414 0 0 0 679.594 0z m0 0" fill="#EEEEED"/>
    <path d="M451.376 0H345.49a135.414 135.414 0 0 0-97.468 41.406c-38.694 40.11-38.694 103.648 0.002 143.758l39.936 41.406h219.086C452.468 184.266 415.164 55.312 451.376 0z m0 0" fill="#CFCFCD"/>
    <path d="M527.54 55.664a14.998 14.998 0 1 1-29.996-0.01 14.998 14.998 0 0 1 29.996 0.01z m-96.766-15a14.998 14.998 0 1 1-29.994 0.006 14.998 14.998 0 0 1 29.994-0.006z m193.522 0a14.998 14.998 0 1 1-29.994 0.006 14.998 14.998 0 0 1 29.994-0.006z m0 0" fill="#A9AAAB"/>
    <path d="M396.78 795.344c0-29.766-30.304-53.9-67.686-53.9s-67.688 24.134-67.688 53.9c0 29.774 30.304 53.906 67.688 53.906s67.688-24.132 67.688-53.906z m366.9 0c0-29.766-30.312-53.9-67.696-53.9-37.382 0-67.688 24.134-67.688 53.9 0 29.774 30.306 53.906 67.688 53.906 37.384 0 67.696-24.132 67.696-53.906z m0 0" fill="#FFFFFF"/>
    <path d="M368.546 756.57a14.994 14.994 0 0 1-15-15v-23.9c0-8.288 6.712-15 15-15a15 15 0 0 1 15 15v23.9a15 15 0 0 1-15 15z m287.994 0a15 15 0 0 1-15-15v-23.9c0-8.288 6.718-15 15-15s15 6.712 15 15v23.9a15 15 0 0 1-15 15z m-144 18.36a65.32 65.32 0 0 1-49.266-22.446 14.994 14.994 0 0 1 1.452-21.164 15.002 15.002 0 0 1 21.164 1.46 35.352 35.352 0 0 0 26.656 12.15c10.212 0 19.922-4.43 26.658-12.148 5.436-6.25 14.914-6.9 21.164-1.46a15.008 15.008 0 0 1 1.452 21.162 65.366 65.366 0 0 1-49.28 22.446z m0 0" fill="#495059"/>
  </g>
</svg>